<svg width="128" height="128" viewBox="0 0 128 128" fill="none" xmlns="http://www.w3.org/2000/svg">
  <!-- 背景圆形 -->
  <circle cx="64" cy="64" r="60" fill="#3B82F6" stroke="#1E40AF" stroke-width="2"/>
  
  <!-- 剪刀图标 -->
  <g transform="translate(32, 32)">
    <!-- 剪刀左半部分 -->
    <path d="M20 8 L32 20 L28 24 L16 12 C14 10 14 6 16 4 C18 2 22 2 24 4 C26 6 26 10 24 12 L20 8 Z" fill="white" stroke="#E5E7EB" stroke-width="1"/>
    
    <!-- 剪刀右半部分 -->
    <path d="M20 56 L32 44 L28 40 L16 52 C14 54 14 58 16 60 C18 62 22 62 24 60 C26 58 26 54 24 52 L20 56 Z" fill="white" stroke="#E5E7EB" stroke-width="1"/>
    
    <!-- 剪刀中心轴 -->
    <circle cx="32" cy="32" r="3" fill="#374151"/>
    
    <!-- 文档图标 -->
    <rect x="40" y="20" width="20" height="24" rx="2" fill="white" stroke="#E5E7EB" stroke-width="1"/>
    <rect x="42" y="24" width="16" height="2" fill="#9CA3AF"/>
    <rect x="42" y="28" width="12" height="2" fill="#9CA3AF"/>
    <rect x="42" y="32" width="14" height="2" fill="#9CA3AF"/>
    <rect x="42" y="36" width="10" height="2" fill="#9CA3AF"/>
  </g>
  
  <!-- 装饰性光晕效果 -->
  <circle cx="64" cy="64" r="58" fill="none" stroke="rgba(255,255,255,0.2)" stroke-width="1"/>
  <circle cx="64" cy="64" r="56" fill="none" stroke="rgba(255,255,255,0.1)" stroke-width="1"/>
</svg>